<svg width="170" height="61" viewBox="0 0 170 61" fill="none" xmlns="http://www.w3.org/2000/svg">
<path d="M166.581 0H3.41948C1.53119 0 0 1.52419 0 3.40385V52.9536C0 54.8332 1.53119 56.3574 3.41948 56.3574H48.4029C48.8033 56.3574 49.1279 56.0343 49.1279 55.6357V54.3862C49.1279 53.9876 48.8033 53.6645 48.4029 53.6645H3.41948C3.02451 53.6645 2.70528 53.3467 2.70528 52.9536V3.40385C2.70528 3.01068 3.02451 2.69292 3.41948 2.69292H166.581C166.975 2.69292 167.295 3.01068 167.295 3.40385V52.9536C167.295 53.3467 166.975 53.6645 166.581 53.6645H120.515C120.115 53.6645 119.79 53.9876 119.79 54.3862V55.6357C119.79 56.0343 120.115 56.3574 120.515 56.3574H166.581C168.469 56.3574 170 54.8332 170 52.9536V3.40385C170 1.52419 168.469 0 166.581 0Z" fill="#FF4E00"/>
<path fill-rule="evenodd" clip-rule="evenodd" d="M74.3033 47.3631H77.6525V49.9106H80.0006V53.5837H77.6525V55.0379C77.6525 56.7075 77.9771 56.8691 79.492 56.8691H80.0006V60.7146H78.0312C74.6929 60.7146 73.6757 59.6104 73.6757 55.9858V53.5945H72.4583V50.2229C72.81 50.2122 73.1292 50.126 73.4106 49.9698C73.7677 49.7544 74.022 49.3666 74.1464 48.8442C74.2276 48.4779 74.2817 48.0147 74.3033 47.4277V47.3631ZM57.6983 47.3631H54.3491V47.4115C54.3275 47.9986 54.2788 48.4618 54.1922 48.828C54.0678 49.3504 53.8135 49.7382 53.4564 49.9536C53.1805 50.1098 52.8612 50.196 52.5041 50.2068V53.5783H53.7215V55.9696C53.7215 59.5943 54.7387 60.6984 58.077 60.6984H60.0465V56.8529H59.5379C58.0229 56.8529 57.6983 56.6967 57.6983 55.0217V53.5675H60.0465V49.8944H57.6983V47.3469V47.3631ZM116.489 56.1366L117.458 57.7954C117.507 57.8816 117.496 57.9893 117.42 58.0593L114.753 60.6499C114.666 60.7361 114.525 60.7361 114.439 60.6499L111.777 58.0593C111.701 57.9893 111.69 57.8762 111.744 57.79L112.778 56.1312C112.821 56.0666 112.891 56.0289 112.967 56.0289H116.295C116.376 56.0289 116.446 56.072 116.484 56.1366M112.664 49.7221H112.269C110.192 49.7221 109.326 50.3091 109.066 51.8872L108.985 52.388L108.26 49.9106H104.938V60.7146H109.331V56.1527C109.331 54.6663 109.807 54.1923 111.285 54.1923H112.648L112.664 49.7274V49.7221ZM96.8004 54.0146L96.7734 54.1492H99.7925L99.7708 54.02C99.6464 53.1582 99.1811 52.7543 98.3154 52.7543C97.4497 52.7543 96.9682 53.1528 96.8004 54.0146ZM92.6343 55.2264C92.6343 51.8333 94.7985 49.7221 98.2775 49.7221C101.838 49.7221 103.883 51.6825 103.883 55.0971V56.3035H96.7788L96.8004 56.4328C96.9465 57.3969 97.4335 57.8493 98.3316 57.8493C98.8727 57.8493 99.2352 57.6392 99.43 57.2084H103.85C103.196 59.7559 101.351 60.9946 98.218 60.9946C94.5659 60.9946 92.6289 59.1365 92.6289 55.6195V55.221L92.6343 55.2264ZM64.943 54.1492L64.9701 54.0146C65.1324 53.1528 65.6139 52.7543 66.485 52.7543C67.3561 52.7543 67.816 53.1582 67.9405 54.02L67.9621 54.1492H64.943ZM66.4472 49.7221C62.9682 49.7221 60.8039 51.8333 60.8039 55.2264V55.6249C60.8039 59.1419 62.7355 61 66.3931 61C69.5258 61 71.3708 59.7613 72.0255 57.2138H67.605C67.4102 57.6446 67.0477 57.8547 66.5067 57.8547C65.6031 57.8547 65.1162 57.4023 64.9755 56.4382L64.9538 56.3089H72.0579V55.1025C72.0579 51.6879 70.0127 49.7274 66.4526 49.7274L66.4472 49.7221ZM88.4736 49.7221C87.1372 49.7221 86.1525 50.2822 85.6222 51.3378L85.4058 51.7687V46.4259H81.1639V60.7092H85.4058V55.0756C85.4058 54.1708 85.487 53.2821 86.4284 53.2821C87.3698 53.2821 87.4131 54.0738 87.4131 54.9625V60.7092H91.6171V53.5999C91.6171 50.95 90.6162 49.7167 88.4736 49.7167V49.7221Z" fill="#F2F1EF"/>
<path d="M146.015 27.7317C145.869 27.6078 145.652 27.6078 145.512 27.7317L135.989 35.8805C135.811 36.0313 135.811 36.3059 135.989 36.4621L144.332 43.8299C144.403 43.8946 144.495 43.9269 144.587 43.9269L163.832 44.0346C164.189 44.0346 164.357 43.593 164.086 43.3614L146.026 27.7371L146.015 27.7317Z" fill="#FF4E00"/>
<path d="M79.6219 19.1359C79.7085 19.0605 79.7572 18.9528 79.7572 18.8397V6.78616C79.7572 6.57611 79.584 6.40376 79.373 6.40376H74.5414C74.4494 6.40376 74.3628 6.43608 74.2925 6.49532L30.6617 43.3506C30.3857 43.5822 30.5535 44.0292 30.9106 44.0292H49.8259C49.9179 44.0292 50.0045 43.9969 50.0748 43.9377L79.6273 19.1359H79.6219Z" fill="#FF4E00"/>
<path d="M55.0038 19.1359C55.0904 19.0605 55.1391 18.9528 55.1391 18.8397V6.78616C55.1391 6.57611 54.9659 6.40376 54.7549 6.40376H49.9233C49.8313 6.40376 49.7447 6.43608 49.6744 6.49532L6.03819 43.3506C5.76225 43.5822 5.92998 44.0292 6.28708 44.0292H25.2024C25.2944 44.0292 25.381 43.9969 25.4513 43.9377L55.0038 19.1359Z" fill="#FF4E00"/>
<path d="M163.827 6.40376H144.581C144.489 6.40376 144.397 6.43608 144.327 6.50071L119.844 27.0207V44.0077L164.075 7.07699C164.346 6.8454 164.184 6.39838 163.821 6.39838L163.827 6.40376Z" fill="#FF4E00"/>
<path d="M102.887 6.50071C102.817 6.44146 102.725 6.40376 102.633 6.40376H83.0522C82.8412 6.40376 82.668 6.57611 82.668 6.78616V18.8343C82.668 19.0443 82.8412 19.2167 83.0522 19.2167H98.7591C98.8565 19.2167 98.9484 19.2544 99.0188 19.319L102.644 22.6205C102.725 22.6959 102.768 22.7983 102.768 22.906V27.1392C102.768 27.2577 102.714 27.3654 102.622 27.4408L98.1855 30.974C98.1152 31.0278 98.034 31.0601 97.9421 31.0601H70.3915C70.2995 31.0601 70.2129 31.0924 70.1426 31.1517L55.8154 43.2537C55.5395 43.4853 55.7072 43.9323 56.0643 43.9323H102.628C102.72 43.9323 102.812 43.9 102.882 43.8353L116.955 31.5071V18.8235L102.882 6.49532L102.887 6.50071Z" fill="#FF4E00"/>
<path d="M6.42234 39.252L30.3857 19.1359C30.4723 19.0605 30.521 18.9528 30.521 18.8397V6.78616C30.521 6.57611 30.3479 6.40376 30.1369 6.40376H25.3052C25.2132 6.40376 25.1267 6.43608 25.0563 6.49532L5.91916 22.6528C5.83259 22.7282 5.7839 22.836 5.7839 22.9437V38.9504C5.7839 39.2789 6.16805 39.4566 6.42234 39.252Z" fill="#FF4E00"/>
</svg>
